<?xml version="1.0" encoding="utf-8"?>
<!-- Generator: Adobe Illustrator 26.0.2, SVG Export Plug-In . SVG Version: 6.00 Build 0)  -->
<svg version="1.1" id="Moon" xmlns="http://www.w3.org/2000/svg" xmlns:xlink="http://www.w3.org/1999/xlink" x="0px" y="0px"
	 viewBox="0 0 512 512" style="enable-background:new 0 0 512 512;" xml:space="preserve">
<style type="text/css">
	.st0{fill:#FFFFFF;}
</style>
<path class="st0" d="M128.8,279.4c4.5,61.7,54.3,111.5,115.9,115.9c47.1,3.5,92.3-19.7,116.7-60.2c0.1-0.1,0.1-0.1,0.1-0.2
	c0.5-0.8,1-1.7,1.5-2.5c0.1-0.1,0.1-0.1,0.1-0.2c5.5-10.8,1.2-24-9.6-29.4c-3.1-1.5-6.5-2.4-9.9-2.4h-0.5c-1.4,0.2-2.8,0.4-4.1,0.5
	h-0.1c-6.9,0.6-13.8,0.5-20.7-0.2c-49.8-5.1-89.9-45.2-95.1-95.1c-0.7-6.9-0.8-13.9-0.2-20.9c0.1-1.2,0.2-2.5,0.4-3.7
	c0.1-0.2,0.1-0.5,0.1-0.7c0-12.1-9.8-21.9-22-21.9c-3.4,0-6.7,0.8-9.7,2.3l-2.5,1.5l-0.1,0.1C150.4,185.9,125.2,229.9,128.8,279.4z
	 M302.1,204.4l-18.4-30.7L256,158.3l27.6-18.4l18.4-27.6l18.4,27.6l27.6,18.4l-27.6,15.4L302.1,204.4z M344.5,282.4l-15.6-26
	l-23.3-13l23.3-15.6l15.6-23.4l15.6,23.3l23.4,15.6l-23.3,13L344.5,282.4z"/>
</svg>
