<?xml version="1.0" encoding="utf-8"?>
<!-- Generator: Adobe Illustrator 26.0.2, SVG Export Plug-In . SVG Version: 6.00 Build 0)  -->
<svg version="1.1" id="Sun" xmlns="http://www.w3.org/2000/svg" xmlns:xlink="http://www.w3.org/1999/xlink" x="0px" y="0px"
	 viewBox="0 0 512 512" style="enable-background:new 0 0 512 512;" xml:space="preserve">
<circle cx="256" cy="256" r="81.5"/>
<path d="M256,350.9c-52.3,0-94.9-42.6-94.9-94.9s42.6-94.9,94.9-94.9s94.9,42.6,94.9,94.9S308.3,350.9,256,350.9z M256,187.8
	c-37.6,0-68.2,30.6-68.2,68.2s30.6,68.2,68.2,68.2s68.2-30.6,68.2-68.2S293.6,187.8,256,187.8z"/>
<path d="M256,141.5c-7.4,0-13.3-6-13.3-13.3V84.8c0-7.4,6-13.3,13.3-13.3c7.3,0,13.3,6,13.3,13.3v43.3
	C269.3,135.5,263.4,141.5,256,141.5z"/>
<path d="M256,440.5c-7.4,0-13.3-6-13.3-13.3v-43.3c0-7.4,6-13.3,13.3-13.3c7.3,0,13.3,6,13.3,13.3v43.3
	C269.3,434.6,263.4,440.5,256,440.5z"/>
<path d="M427.2,269.3h-43.3c-7.4,0-13.3-6-13.3-13.3s6-13.3,13.3-13.3h43.3c7.4,0,13.3,6,13.3,13.3S434.6,269.3,427.2,269.3z"/>
<path d="M128.1,269.3H84.8c-7.4,0-13.3-6-13.3-13.3s6-13.3,13.3-13.3h43.3c7.4,0,13.3,6,13.3,13.3S135.5,269.3,128.1,269.3z"/>
<path d="M346.4,178.9c-3.4,0-6.8-1.3-9.4-3.9c-5.2-5.2-5.2-13.6,0-18.9l30.6-30.6c5.2-5.2,13.6-5.2,18.9,0c5.2,5.2,5.2,13.6,0,18.9
	L355.8,175C353.2,177.6,349.8,178.9,346.4,178.9z"/>
<path d="M134.9,390.4c-3.4,0-6.8-1.3-9.4-3.9c-5.2-5.2-5.2-13.6,0-18.9l30.6-30.6c5.2-5.2,13.6-5.2,18.9,0c5.2,5.2,5.2,13.6,0,18.9
	l-30.6,30.6C141.8,389.1,138.4,390.4,134.9,390.4z"/>
<path d="M377.1,390.4c-3.4,0-6.8-1.3-9.4-3.9L337,355.8c-5.2-5.2-5.2-13.6,0-18.9c5.2-5.2,13.6-5.2,18.9,0l30.6,30.6
	c5.2,5.2,5.2,13.6,0,18.9C383.9,389.1,380.5,390.4,377.1,390.4z"/>
<path d="M165.6,178.9c-3.4,0-6.8-1.3-9.4-3.9l-30.6-30.6c-5.2-5.2-5.2-13.6,0-18.9c5.2-5.2,13.6-5.2,18.9,0l30.6,30.6
	c5.2,5.2,5.2,13.6,0,18.9C172.4,177.6,169,178.9,165.6,178.9z"/>
</svg>
